<svg width="56" height="57" viewBox="0 0 56 57" fill="none" xmlns="http://www.w3.org/2000/svg">
<g id="Frame">
<g id="right  foot">
<path id="Vector" d="M49.1262 18.3305C49.077 18.248 49.0274 18.1669 48.9776 18.0872C46.705 14.4551 42.2964 12.5936 38.0051 13.4701C37.0065 13.6741 35.5354 14.0883 34.1547 14.9002L34.1546 14.9002C32.765 15.7171 31.8263 16.7237 31.3211 17.8786L49.1262 18.3305ZM49.1262 18.3305C49.8332 19.5189 50.2038 21.1441 50.2673 23.0498C50.3306 24.9494 50.0874 27.0904 49.6015 29.2783C48.6282 33.6607 46.6964 38.1641 44.3953 41.2188L44.7946 41.5197L44.3953 41.2188C42.3527 43.9304 40.2976 45.2035 38.4085 45.2036L49.1262 18.3305ZM32.4948 24.8761L32.4948 24.8761C34.9286 28.8957 34.3423 33.0287 33.8485 36.5102L33.8418 36.557C33.5361 38.713 33.2996 40.4377 33.6703 41.8845L32.4948 24.8761ZM32.4948 24.8761C30.8185 22.1081 30.4902 19.7779 31.3211 17.8786L32.4948 24.8761ZM37.3202 45.0619L37.3208 45.062C37.6757 45.1558 38.0412 45.2034 38.4082 45.2036L37.3202 45.0619ZM37.3202 45.0619C35.2068 44.5061 34.0729 43.4542 33.6704 41.8846L37.3202 45.0619Z" stroke="black"/>
<path id="2" d="M44.9297 33H39.3398V32.2207L42.293 28.9395C42.7305 28.4434 43.0312 28.041 43.1953 27.7324C43.3633 27.4199 43.4473 27.0977 43.4473 26.7656C43.4473 26.3203 43.3125 25.9551 43.043 25.6699C42.7734 25.3848 42.4141 25.2422 41.9648 25.2422C41.4258 25.2422 41.0059 25.3965 40.7051 25.7051C40.4082 26.0098 40.2598 26.4355 40.2598 26.9824H39.1758C39.1758 26.1973 39.4277 25.5625 39.9316 25.0781C40.4395 24.5938 41.1172 24.3516 41.9648 24.3516C42.7578 24.3516 43.3848 24.5605 43.8457 24.9785C44.3066 25.3926 44.5371 25.9453 44.5371 26.6367C44.5371 27.4766 44.002 28.4766 42.9316 29.6367L40.6465 32.1152H44.9297V33Z" fill="black"/>
<path id="Vector_2" d="M33.6921 12.0815L33.6921 12.0815C34.5364 11.923 35.2695 11.3688 35.7433 10.4724L35.7433 10.4724C36.1993 9.60986 36.3495 8.53925 36.1458 7.45589C35.7109 5.14249 33.8622 3.72016 32.1795 4.03586L33.6921 12.0815ZM33.6921 12.0815C33.5328 12.1115 33.3711 12.1265 33.209 12.1265C31.6754 12.1265 30.1177 10.7466 29.7259 8.66155L29.7259 8.66144C29.5221 7.57815 29.6724 6.50755 30.1285 5.64498L30.1285 5.64493M33.6921 12.0815L30.1285 5.64493M30.1285 5.64493C30.6023 4.74863 31.3353 4.19442 32.1794 4.03588L30.1285 5.64493Z" stroke="black"/>
<path id="Vector_3" d="M43.1023 7.94084L43.1022 7.94084L40.2702 10.9158C40.2702 10.9158 40.2701 10.9158 40.2701 10.9158C39.5862 10.8662 38.955 10.5045 38.4962 9.85715C38.0396 9.18858 37.8276 8.38286 37.8961 7.57603L37.8962 7.57603L37.8966 7.56986C38.0287 5.7491 39.3678 4.50194 40.7281 4.60105L40.7283 4.60107C41.4122 4.65058 42.0437 5.01259 42.5021 5.65962C42.9589 6.32817 43.1709 7.13396 43.1023 7.94084Z" stroke="black"/>
<path id="Vector_4" d="M46.4014 11.4581L46.4006 11.4581C46.3666 11.4582 46.3322 11.457 46.2974 11.4545C46.0558 11.4338 45.8218 11.3591 45.6128 11.236C45.4031 11.1123 45.2239 10.943 45.0885 10.7406L45.0886 10.7406L45.0852 10.7357C44.7727 10.2802 44.6273 9.73061 44.6737 9.18013L44.6737 9.18013L44.6742 9.17427C44.7654 7.91563 45.6948 7.08731 46.6038 7.15105C46.8454 7.17183 47.0792 7.24655 47.2881 7.36974C47.4979 7.49344 47.677 7.66281 47.8123 7.86527L47.8123 7.86529L47.8157 7.87037C48.1282 8.32573 48.2735 8.87511 48.2272 9.4254L48.2272 9.4254L48.2268 9.43116C48.1391 10.6399 47.2736 11.4581 46.4014 11.4581Z" stroke="black"/>
<path id="Vector_5" d="M48.419 13.5442L48.8907 13.3784C48.7338 12.9319 48.7363 12.4449 48.8976 11.9999L48.8976 12L48.8995 11.9946C49.2592 10.9664 50.2175 10.4987 50.9489 10.7523C51.1441 10.8233 51.3208 10.9373 51.4662 11.0857C51.6121 11.2348 51.7226 11.4149 51.7894 11.6125L51.7894 11.6125L51.7913 11.6182C51.9481 12.0646 51.9457 12.5515 51.7844 12.9963L51.7844 12.9963L51.7825 13.0017C51.4919 13.8327 50.7893 14.3138 50.1502 14.3138L50.1493 14.3138C50.0076 14.3141 49.8669 14.2905 49.7331 14.2442C49.5379 14.1732 49.3612 14.0593 49.2159 13.9109C49.0699 13.7619 48.9595 13.5818 48.8927 13.3842L48.419 13.5442Z" stroke="black"/>
<path id="Vector_6" d="M51.4543 15.654L51.4544 15.654L51.4579 15.6497C52.1573 14.8141 53.2194 14.7141 53.8144 15.2089C53.972 15.3441 54.0973 15.5129 54.181 15.703C54.265 15.8939 54.3049 16.1013 54.2977 16.3097L54.2977 16.3097L54.2975 16.3157C54.2869 16.7888 54.1129 17.2436 53.8051 17.6031L53.8005 17.6085L53.796 17.614C53.6154 17.8376 53.3882 18.0191 53.1303 18.1461C52.8733 18.2727 52.5918 18.3419 52.3054 18.3492C51.9916 18.3527 51.6866 18.2457 51.4437 18.047C51.2867 17.912 51.1619 17.7436 51.0784 17.554C50.9944 17.3631 50.9545 17.1557 50.9617 16.9472L50.9617 16.9472L50.9619 16.9413C50.9727 16.4682 51.1466 16.0134 51.4543 15.654Z" stroke="black"/>
</g>
<g id="left  foot">
<path id="Vector_7" d="M25.1105 32.889C23.9346 37.3635 25.3696 41.0005 26.5836 44.0775L26.5978 44.1132C26.5978 44.1132 26.5978 44.1133 26.5978 44.1133C27.3548 46.0323 27.9425 47.548 27.8698 48.9185L27.8698 48.9185C27.8294 49.6826 27.5858 50.3342 27.1212 50.9138C26.6503 51.5013 25.9346 52.0365 24.9198 52.5272C24.2446 52.8505 23.5046 53.0155 22.7561 53.0096V53.0096H22.7522C20.9062 53.0097 18.7401 52.1003 16.4466 50.2276C13.7232 48.0034 11.0811 44.6073 9.29859 41.0756C7.50624 37.5243 6.63723 33.945 7.30362 31.3246C7.32755 31.2315 7.35216 31.1395 7.37744 31.0487L7.37745 31.0486C8.52615 26.9219 12.2257 23.8874 16.5896 23.5121L16.5897 23.5121C17.6051 23.4246 19.1334 23.4051 20.6881 23.793L20.6883 23.793C22.2527 24.1828 23.4386 24.8822 24.2507 25.8467C25.5862 27.4327 25.9324 29.7604 25.1105 32.889ZM25.1105 32.889L25.5892 33.0148L25.1105 32.889ZM10.4718 34.1463C10.4326 33.8715 10.2857 33.6235 10.0636 33.4569C9.8415 33.2903 9.56229 33.2187 9.28743 33.258C9.01256 33.2972 8.76455 33.4441 8.59795 33.6662C8.43135 33.8883 8.35981 34.1675 8.39907 34.4424L8.39908 34.4424C8.41849 34.5782 8.43996 34.7147 8.46349 34.8518L8.53478 35.2672H8.63233M10.4718 34.1463L9.99298 34.2147L10.4718 34.1463C10.4718 34.1463 10.4718 34.1463 10.4718 34.1463ZM10.4718 34.1463C10.4884 34.2625 10.5069 34.3795 10.5271 34.4973L10.5272 34.4975C10.5504 34.633 10.5468 34.7718 10.5164 34.9059C10.4861 35.0399 10.4296 35.1667 10.3502 35.279C10.2709 35.3913 10.1702 35.4868 10.0539 35.5601C10.0487 35.5634 10.0434 35.5667 10.0381 35.5699M10.0381 35.5699C9.91062 35.5598 9.78112 35.573 9.65618 35.6103C9.65613 35.6103 9.65608 35.6103 9.65602 35.6103C9.56993 35.636 9.48828 35.6725 9.41274 35.7183M10.0381 35.5699C9.92933 35.6358 9.80941 35.6814 9.68425 35.7044C9.68034 35.7051 9.67643 35.7058 9.67252 35.7064C9.58656 35.7212 9.49929 35.7251 9.41274 35.7183M10.0381 35.5699C10.1822 35.5813 10.3237 35.6225 10.4532 35.6925C10.6975 35.8245 10.8793 36.0481 10.9587 36.3142L10.9587 36.3142C11.5103 38.1634 12.434 40.1776 13.6343 42.1355L13.6343 42.1356C13.7062 42.2529 13.7542 42.3831 13.7757 42.519C13.7972 42.6548 13.7917 42.7935 13.7596 42.9273C13.7275 43.061 13.6693 43.187 13.5884 43.2983C13.5075 43.4095 13.4055 43.5037 13.2882 43.5755L12.5272 44.0413V43.7074M9.41274 35.7183C9.36285 35.7143 9.31321 35.7068 9.26419 35.6957C9.13011 35.6653 9.00331 35.6089 8.89105 35.5295C8.7899 35.458 8.70232 35.3691 8.63233 35.2672M9.41274 35.7183C9.2549 35.814 9.12374 35.9506 9.03447 36.1158C8.96911 36.2367 8.92821 36.3693 8.9141 36.5061C8.9 36.6429 8.91297 36.781 8.95228 36.9128M8.63233 35.2672H8.95628H8.95639V35.0146V34.7672M8.63233 35.2672C8.62465 35.256 8.61718 35.2447 8.60992 35.2332C8.53658 35.1169 8.48686 34.9873 8.4636 34.8518L8.95628 34.7672L8.95639 34.7672M8.95639 34.7672C8.96854 34.838 8.99452 34.9057 9.03283 34.9664C9.07114 35.0272 9.12105 35.0798 9.17969 35.1212C9.23833 35.1627 9.30457 35.1922 9.37461 35.208C9.44466 35.2239 9.51714 35.2258 9.58792 35.2137C9.6587 35.2015 9.7264 35.1755 9.78715 35.1372C9.84789 35.0989 9.90049 35.049 9.94195 34.9904C9.98341 34.9317 10.0129 34.8655 10.0288 34.7954C10.0446 34.7254 10.0465 34.6529 10.0344 34.5821C10.0133 34.4597 9.99414 34.338 9.97686 34.217C9.95635 34.0734 9.87964 33.9439 9.76361 33.8568C9.64757 33.7698 9.50171 33.7324 9.35812 33.753C9.21454 33.7735 9.08497 33.8502 8.99794 33.9662C8.91091 34.0822 8.87354 34.2281 8.89405 34.3717C8.91279 34.5028 8.93353 34.6346 8.95628 34.7672H8.95639ZM8.95228 36.9128C8.95227 36.9128 8.95226 36.9127 8.95225 36.9127L9.43141 36.7698M8.95228 36.9128L9.43141 36.7698M8.95228 36.9128C9.55896 38.9475 10.5621 41.1306 11.8489 43.2298C11.9207 43.347 12.0149 43.4489 12.1262 43.5297C12.2374 43.6105 12.3635 43.6686 12.4971 43.7006C12.5071 43.703 12.5172 43.7053 12.5272 43.7074M12.5272 43.7074C12.6516 43.7334 12.7797 43.7366 12.9053 43.7166C13.041 43.6951 13.1711 43.6472 13.2882 43.5754C13.2883 43.5753 13.2884 43.5753 13.2885 43.5752L13.0273 43.149H13.3832H13.5272V43.1489V42.8714V42.5583V42.256L13.2307 42.4377C13.2237 42.4238 13.2162 42.4102 13.208 42.3969C11.9889 40.4083 11.0456 38.3545 10.4795 36.4571C10.4381 36.3181 10.3431 36.2013 10.2155 36.1324C10.0879 36.0634 9.93812 36.048 9.79913 36.0894C9.66013 36.1309 9.54331 36.2259 9.47435 36.3535C9.4402 36.4167 9.41883 36.486 9.41147 36.5574C9.4041 36.6288 9.41087 36.701 9.43141 36.7698M12.5272 43.7074V43.5753V43.1859C12.4894 43.1698 12.4534 43.1494 12.42 43.1251C12.3619 43.0829 12.3127 43.0297 12.2752 42.9685C11.0073 40.9002 10.0238 38.7566 9.43141 36.7698" stroke="black"/>
<path id="1" d="M18.9023 41H17.8125V33.7754L15.627 34.5781V33.5938L18.7324 32.4277H18.9023V41Z" fill="black"/>
<path id="Vector_8" d="M19.4998 12.8143L19.4997 12.8143C18.6451 12.9015 17.8681 13.3922 17.3207 14.2457L19.4998 12.8143ZM19.4998 12.8143C21.2041 12.6401 22.9259 14.2129 23.1652 16.5547C23.2771 17.6514 23.0375 18.7057 22.5108 19.527M19.4998 12.8143L20.332 20.9584C21.1865 20.8712 21.9634 20.3804 22.5108 19.527M22.5108 19.527L22.9317 19.7969L22.5108 19.527ZM20.0655 21.4719L20.0656 20.9719C20.1546 20.9719 20.2434 20.9674 20.3319 20.9584L20.0655 21.4719ZM20.0655 21.4719L20.0655 20.9719C18.4561 20.972 16.8923 19.4332 16.6663 17.218C16.5545 16.1213 16.794 15.0671 17.3207 14.2457L20.0655 21.4719Z" stroke="black"/>
<path id="Vector_9" d="M12.9254 22.3431V21.8431C11.8266 21.8431 10.65 21.0277 10.1348 19.6598L10.1348 19.6597L10.1326 19.654C9.83787 18.8998 9.81255 18.0671 10.0608 17.2965C10.3173 16.5457 10.8199 16.0199 11.4615 15.7787L11.4615 15.7787C12.7385 15.2986 14.376 16.1148 15.0192 17.8233L15.0192 17.8234L15.0215 17.8292C15.3162 18.5833 15.3416 19.416 15.0933 20.1865C14.8369 20.9373 14.3343 21.4631 13.6928 21.7044C13.4477 21.7965 13.188 21.8435 12.9261 21.8431L12.9254 22.3431Z" stroke="black"/>
<path id="Vector_10" d="M7.5458 24.0224H7.54513C6.80469 24.0224 5.99569 23.4766 5.64126 22.5353L5.64129 22.5352L5.63918 22.5298C5.43852 22.0151 5.42199 21.4469 5.5924 20.9214L5.59243 20.9214L5.59422 20.9157C5.66653 20.6832 5.79032 20.47 5.95637 20.2919C6.12177 20.1145 6.32487 19.9766 6.55068 19.8882C7.40431 19.5691 8.53029 20.1003 8.97506 21.2818L8.97503 21.2818L8.97716 21.2872C9.17786 21.8019 9.19438 22.3702 9.02394 22.8957L9.0239 22.8957L9.0221 22.9015C8.94981 23.134 8.82605 23.3471 8.66001 23.5252C8.49465 23.7025 8.2916 23.8404 8.06585 23.9288C7.89952 23.9909 7.72337 24.0226 7.5458 24.0224Z" stroke="black"/>
<path id="Vector_11" d="M4.79056 27.8188L4.78574 27.8188C4.24886 27.8188 3.65046 27.5304 3.24479 26.9671L3.24482 26.967L3.24143 26.9625C2.96056 26.5817 2.82004 26.1154 2.84372 25.6429L2.84375 25.6429L2.84398 25.6369C2.85194 25.4285 2.9068 25.2245 3.00449 25.0401C3.10176 24.8566 3.23899 24.6973 3.40605 24.5739C4.03472 24.1238 5.0871 24.3005 5.72376 25.1845L5.72373 25.1845L5.72705 25.189C6.00786 25.5698 6.14835 26.0361 6.1247 26.5087L6.12467 26.5087L6.12444 26.5146C6.1165 26.7231 6.06164 26.9271 5.96395 27.1114C5.86686 27.2946 5.72995 27.4537 5.56329 27.577C5.33757 27.7368 5.06719 27.8214 4.79056 27.8188Z" stroke="black"/>
<path id="Vector_12" d="M2.61848 31.9574L2.5921 31.9396L2.58912 31.9381C2.20284 31.6807 1.91501 31.2998 1.77307 30.8573L1.77311 30.8573L1.77125 30.8517C1.7052 30.6539 1.68464 30.4436 1.71108 30.2367C1.73741 30.0307 1.80967 29.8332 1.9225 29.6589C2.35246 29.0161 3.39912 28.8109 4.30685 29.4141L4.30683 29.4141L4.31159 29.4172C4.7087 29.6746 5.0046 30.0615 5.14916 30.5121L5.14913 30.5121L5.15104 30.5178C5.21714 30.7157 5.23775 30.9259 5.21132 31.1328C5.185 31.3388 5.11272 31.5363 4.99984 31.7107C4.74584 32.0907 4.29548 32.3135 3.7661 32.3141C3.35687 32.3103 2.95778 32.1862 2.61848 31.9574Z" stroke="black"/>
</g>
</g>
</svg>
